PathFileType	4	(X/Y/Z)	D:\TRACE\spot_10-12-23\spot_arm_body_motion_3_4-platform.trc
DataRate	CameraRate	NumFrames	NumMarkers	Units	OrigDataRate	OrigDataStartFrame	OrigNumFrames
100.00	100.00	      48	5	mm	100.00	4376	      7000
Frame#	Time	Left_Front			Right_Front			Left_Aft			Right_Aft			Post			
		X1	Y1	Z1	X2	Y2	Z2	X3	Y3	Z3	X4	Y4	Z4	X5	Y5	Z5	

4376	43.750	-786.48865	35.54984	-633.98108	786.20313	40.08363	-626.79236	-703.44171	-15.29564	502.97827	714.01843	-14.57833	589.04694	-3.37406	786.75647	-919.07355	
4377	43.760	-786.58630	35.41566	-633.97052	786.05768	40.13489	-626.80884	-703.62427	-15.30886	502.93814	713.85626	-14.53856	589.01923	-3.50512	786.62781	-919.26147	
4378	43.770	-786.85175	35.46170	-633.91498	785.88959	40.01910	-626.83447	-703.77856	-15.21751	503.00885	713.68451	-14.52028	589.00653	-3.68856	786.57404	-919.42700	
4379	43.780	-787.05762	35.42955	-633.89136	785.70441	39.86673	-626.92230	-703.96155	-15.18301	502.98050	713.54193	-14.43765	588.99847	-3.85406	786.59070	-919.53845	
4380	43.790	-787.21600	35.44285	-633.88147	785.51678	39.87989	-626.90491	-704.09979	-15.12347	502.95416	713.36823	-14.33359	588.98889	-4.40748	786.62451	-919.53619	
4381	43.800	-787.56683	35.45408	-634.01306	785.26123	39.82034	-627.00677	-704.42444	-15.00091	502.88763	713.07434	-14.22986	588.97339	-4.65262	786.54309	-919.82062	
4382	43.810	-787.85760	35.38973	-634.10297	785.04980	39.70862	-627.05927	-704.78510	-14.96892	502.80273	712.81580	-14.11697	588.90143	-4.89864	786.47162	-919.87573	
4383	43.820	-788.12561	35.36745	-634.12860	784.88959	39.55132	-627.04974	-705.02130	-14.95953	502.80020	712.56824	-13.96795	588.87244	-5.32408	786.24493	-919.92267	
4384	43.830	-788.42975	35.26637	-634.14386	784.45068	39.31501	-627.13727	-705.28375	-14.78903	502.74292	712.28571	-13.87706	588.82623	-5.47679	785.93134	-919.96136	
4385	43.840	-788.71124	34.96316	-634.21149	784.02887	39.12974	-627.15552	-705.52625	-14.63881	502.71237	711.90240	-13.64716	588.89459	-5.70432	785.59833	-920.03400	
4386	43.850	-788.99469	34.69043	-634.22113	783.67993	38.71350	-627.22693	-705.78979	-14.50726	502.66238	711.57831	-13.55941	588.88684	-5.93264	785.22314	-920.20996	
4387	43.860	-789.29211	34.36201	-634.26740	783.29462	38.54994	-627.43903	-706.09961	-14.38166	502.62238	711.23401	-13.46125	588.84204	-6.11805	784.97534	-920.31433	
4388	43.870	-789.65955	34.23608	-634.38031	783.14423	38.37650	-627.50269	-706.34473	-14.27578	502.57031	710.96332	-13.24490	588.80188	-6.32243	784.59052	-920.52478	
4389	43.880	-789.90118	33.99350	-634.40442	782.86041	38.23709	-627.46625	-706.63696	-14.14247	502.50168	710.61536	-13.12037	588.77441	-6.74080	784.25360	-921.15540	
4390	43.890	-790.00519	33.85402	-634.48071	782.56873	38.18838	-627.49182	-707.01062	-13.93999	502.37140	710.30145	-12.98656	588.67542	-7.17473	784.08258	-921.84961	
4391	43.900	-790.38715	33.66150	-634.58655	782.34650	38.08385	-627.51636	-707.29462	-13.75896	502.30981	710.01031	-12.89567	588.55902	-7.01222	783.87762	-922.07452	
4392	43.910	-790.85034	33.41529	-634.64978	781.84943	37.88688	-627.73834	-707.54211	-13.60973	502.32892	709.79913	-12.28531	589.27429	-7.39760	783.49799	-922.53644	
4393	43.920	-791.15027	33.15318	-634.54352	781.32544	37.53517	-627.82367	-708.05707	-13.50226	502.25604	709.32544	-12.05366	589.22699	-7.86734	783.20746	-922.52667	
4394	43.930	-791.65747	33.00890	-634.60864	781.11121	37.25971	-627.70367	-708.56635	-13.24579	502.15463	708.90454	-11.87125	589.02264	-8.42622	782.81586	-923.40497	
4395	43.940	-792.11273	32.87849	-634.70593	780.78961	37.10536	-627.79730	-708.83435	-13.11483	502.10913	708.61737	-11.71167	589.02545	-9.30958	782.27081	-923.24902	
4396	43.950	-792.18054	32.47282	-634.94550	780.38916	36.74690	-627.94214	-709.17334	-13.00187	502.16260	708.38593	-11.55400	588.91937	-9.13880	782.26556	-924.09790	
4397	43.960	-792.54071	32.20189	-635.15527	780.06830	36.47824	-627.95740	-709.42090	-12.84367	502.17447	708.08423	-11.27907	588.76025	-9.42257	781.82166	-924.26935	
4398	43.970	-793.04004	31.84701	-635.17902	779.81866	36.18562	-627.95258	-709.66858	-12.68496	502.10291	707.61316	-11.03703	588.65204	-9.77470	781.12341	-924.38080	
4399	43.980	-793.48096	31.55150	-635.16425	779.30334	35.56168	-627.98328	-710.16382	-12.44199	501.90848	707.00085	-10.95675	588.46802	-10.12606	780.46185	-924.64093	
4400	43.990	-793.91345	31.28514	-635.22235	778.82721	35.35495	-628.10840	-710.70813	-12.21309	501.80740	706.49652	-10.67332	588.31799	-10.69909	780.15204	-924.92749	
4401	44.000	-794.21863	30.82893	-635.32831	778.44525	35.03902	-628.29462	-711.27374	-11.77844	501.71869	706.10883	-10.39408	588.18719	-11.25659	779.83295	-925.60425	
4402	44.010	-794.63043	30.24142	-635.35492	777.95544	34.74957	-628.60120	-711.59180	-11.46793	501.65680	705.78644	-10.15957	588.13531	-11.60630	779.06726	-926.12445	
4403	44.020	-794.98932	29.97385	-635.58710	777.70087	34.42740	-628.78564	-711.89923	-11.21483	501.66394	705.45081	-9.77340	588.05463	-11.65310	778.53644	-926.72632	
4404	44.030	-795.35760	29.75124	-635.65558	777.41443	34.19012	-628.82458	-712.15399	-10.99775	501.68808	705.08429	-9.40877	588.00769	-12.12871	778.07629	-927.53259	
4405	44.040	-795.86694	29.38016	-635.76868	776.99597	33.57071	-628.90533	-712.47272	-10.73860	501.62842	704.74567	-9.17899	587.89764	-12.73970	777.34082	-928.25641	
4406	44.050	-796.22913	28.92243	-636.03790	776.75055	32.96240	-628.94647	-713.03723	-10.32112	501.52924	704.15924	-8.77591	587.72369	-12.84984	776.63019	-928.87866	
4407	44.060	-796.56445	28.40332	-636.11279	776.33948	32.45584	-628.97913	-713.47058	-9.96737	501.36084	703.69275	-8.33740	587.64551	-13.25580	776.07617	-929.71796	
4408	44.070	-797.01593	28.00359	-636.21509	775.74683	32.20024	-629.04578	-713.86908	-9.71908	501.26996	703.54651	-7.98023	587.63464	-13.93262	775.40137	-930.59534	
4409	44.080	-797.33899	27.59817	-636.18665	775.36731	31.82124	-629.23151	-714.20386	-9.53238	501.29608	703.25488	-7.53937	587.50714	-14.21302	774.90686	-931.23865	
4410	44.090	-797.82904	27.00949	-636.44019	774.89136	31.30554	-629.38654	-714.53198	-9.21170	501.14493	702.92358	-7.03781	587.51593	-14.62616	774.14978	-931.74414	
4411	44.100	-798.00006	26.25255	-636.45697	774.63269	30.59525	-629.35626	-715.03619	-8.77319	500.96512	702.71503	-6.60892	587.36731	-15.01750	773.44946	-932.54620	
4412	44.110	-798.47607	25.78921	-636.62683	774.36591	30.21962	-629.61023	-715.39587	-8.42339	500.84262	702.16376	-6.11089	587.23187	-15.20211	772.58887	-933.27594	
4413	44.120	-798.96246	25.49634	-636.65308	774.18781	29.79280	-629.81671	-715.77313	-8.02791	500.69653	701.66296	-5.76173	586.99707	-15.59808	771.84491	-933.67114	
4414	44.130	-799.16302	24.72801	-637.02197	773.80170	29.24906	-630.12323	-716.13745	-7.57156	500.66489	701.34613	-5.36293	586.83685	-16.01528	771.14795	-934.23517	
4415	44.140	-799.69434	24.27627	-637.14471	773.07849	28.37410	-630.37769	-716.40338	-7.21267	500.63309	700.91766	-4.88872	586.73627	-16.38251	770.08624	-934.72028	
4416	44.150	-800.11163	23.83820	-637.34491	772.66284	27.77250	-630.27136	-716.84540	-6.81847	500.36212	700.52454	-4.46681	586.66925	-16.74953	769.24158	-935.57959	
4417	44.160	-800.42627	22.92413	-637.50208	772.45703	27.29252	-630.46088	-717.15833	-6.38811	500.41922	700.14136	-3.92765	586.50696	-17.05687	768.20123	-936.48169	
4418	44.170	-800.79095	22.30173	-637.67108	772.07501	26.66325	-630.71570	-717.65747	-5.83766	500.23788	699.86682	-3.35538	586.34760	-17.28819	767.54437	-937.36200	
4419	44.180	-801.03027	21.86260	-637.73077	771.73114	26.04535	-630.72607	-717.82959	-5.50670	500.08014	699.39655	-2.78011	586.36841	-17.82866	766.36298	-938.40411	
4420	44.190	-801.31934	20.90810	-637.91565	771.53583	25.45065	-630.93378	-718.21997	-5.09714	499.67493	699.05103	-2.23267	586.25946	-17.80245	765.68860	-939.42688	
4421	44.200	-801.62854	20.38977	-638.11218	771.11707	24.77407	-631.20831	-718.63373	-4.60628	499.57321	698.70764	-1.66156	586.16821	-18.62923	764.43762	-940.59930	
4422	44.210	-801.99097	19.84827	-638.29169	770.85132	24.01452	-631.34637	-719.01221	-4.06517	499.37180	698.53772	-0.94343	586.01031	-18.65917	763.71649	-941.66711	
4423	44.220	-802.29181	18.75010	-638.52728	770.75616	23.20941	-631.35181	-719.14178	-3.50287	499.16122	698.30707	-0.50102	585.95496	-18.86304	762.23157	-942.75159	
